<svg width="25" height="26" viewBox="0 0 25 26" fill="none" xmlns="http://www.w3.org/2000/svg">
<path d="M19.6024 1V3.4M5.20239 1V3.4" stroke="white" stroke-width="1.5" stroke-linecap="round" stroke-linejoin="round"/>
<path d="M12.3959 14.1994H12.4067M12.3959 18.9994H12.4067M17.1905 14.1994H17.2013M7.60132 14.1994H7.61208M7.60132 18.9994H7.61208" stroke="white" stroke-width="2" stroke-linecap="round" stroke-linejoin="round"/>
<path d="M2.20239 8.1994H22.6024" stroke="white" stroke-width="1.5" stroke-linecap="round" stroke-linejoin="round"/>
<path d="M1 13.2913C1 8.06253 1 5.44814 2.50255 3.82377C4.00509 2.1994 6.42339 2.1994 11.26 2.1994H13.54C18.3766 2.1994 20.795 2.1994 22.2975 3.82377C23.8 5.44814 23.8 8.06253 23.8 13.2913V13.9076C23.8 19.1363 23.8 21.7507 22.2975 23.3751C20.795 24.9994 18.3766 24.9994 13.54 24.9994H11.26C6.42339 24.9994 4.00509 24.9994 2.50255 23.3751C1 21.7507 1 19.1363 1 13.9076V13.2913Z" stroke="white" stroke-width="1.5" stroke-linecap="round" stroke-linejoin="round"/>
<path d="M1.60132 8.1994H23.2013" stroke="white" stroke-width="1.5" stroke-linecap="round" stroke-linejoin="round"/>
</svg>
