<svg width="27" height="26" viewBox="0 0 27 26" fill="none" xmlns="http://www.w3.org/2000/svg">
<path fill-rule="evenodd" clip-rule="evenodd" d="M10.1804 9.0597H15.0086V11.4647C15.7041 10.0815 17.4877 8.8387 20.167 8.8387C25.3033 8.8387 26.5227 11.5921 26.5227 16.6439V26H21.3227V17.7944C21.3227 14.9175 20.6272 13.2951 18.8566 13.2951C16.4009 13.2951 15.3804 15.0436 15.3804 17.7931V26H10.1804V9.0597ZM1.2637 25.779H6.46371V8.8387H1.2637V25.779ZM7.2086 3.315C7.2088 3.75086 7.12236 4.18241 6.95431 4.58456C6.78626 4.98672 6.53995 5.35147 6.2297 5.6576C5.60103 6.28241 4.75006 6.63215 3.86371 6.63C2.97891 6.62941 2.12991 6.28056 1.50031 5.6589C1.19118 5.35173 0.945707 4.98657 0.777952 4.58436C0.610197 4.18215 0.523458 3.75079 0.522705 3.315C0.522705 2.4349 0.873705 1.5925 1.50161 0.9711C2.13066 0.348606 2.98002 -0.000388974 3.86501 3.25344e-07C4.75161 3.25344e-07 5.6018 0.3497 6.2297 0.9711C6.8563 1.5925 7.2086 2.4349 7.2086 3.315Z" fill="white"/>
</svg>
