<svg width="27" height="26" viewBox="0 0 27 26" fill="none" xmlns="http://www.w3.org/2000/svg">
<path fill-rule="evenodd" clip-rule="evenodd" d="M8.16316 0.078C9.54943 0.0141818 9.99143 0 13.5227 0C17.054 0 17.496 0.0153636 18.8811 0.078C20.2662 0.140636 21.2116 0.361636 22.0389 0.681909C22.9052 1.00927 23.6911 1.521 24.3411 2.18282C25.0029 2.83164 25.5134 3.61636 25.8396 4.48382C26.1611 5.31109 26.3809 6.25655 26.4447 7.63927C26.5085 9.02791 26.5227 9.46991 26.5227 13C26.5227 16.5313 26.5073 16.9733 26.4447 18.3595C26.3821 19.7423 26.1611 20.6877 25.8396 21.515C25.5134 22.3826 25.002 23.1686 24.3411 23.8184C23.6911 24.4802 22.9052 24.9907 22.0389 25.3169C21.2116 25.6384 20.2662 25.8582 18.8834 25.922C17.496 25.9858 17.054 26 13.5227 26C9.99143 26 9.54943 25.9846 8.16316 25.922C6.78043 25.8594 5.83498 25.6384 5.0077 25.3169C4.14016 24.9907 3.35413 24.4793 2.70434 23.8184C2.04297 23.1692 1.53117 22.3835 1.20461 21.5162C0.884341 20.6889 0.664523 19.7435 0.600705 18.3607C0.536887 16.9721 0.522705 16.5301 0.522705 13C0.522705 9.46873 0.538069 9.02673 0.600705 7.64164C0.663341 6.25655 0.884341 5.31109 1.20461 4.48382C1.53165 3.61646 2.04385 2.83082 2.70552 2.18164C3.35439 1.52041 4.13963 1.00861 5.00652 0.681909C5.8338 0.361636 6.77925 0.141818 8.16198 0.078H8.16316ZM18.7759 2.418C17.405 2.35536 16.9937 2.34236 13.5227 2.34236C10.0517 2.34236 9.64043 2.35536 8.26952 2.418C7.00143 2.47591 6.31361 2.68745 5.85507 2.86591C5.2488 3.10227 4.81507 3.38236 4.36007 3.83736C3.92876 4.25697 3.59683 4.76779 3.38861 5.33236C3.21016 5.79091 2.99861 6.47873 2.94071 7.74682C2.87807 9.11773 2.86507 9.529 2.86507 13C2.86507 16.471 2.87807 16.8823 2.94071 18.2532C2.99861 19.5213 3.21016 20.2091 3.38861 20.6676C3.59661 21.2314 3.92871 21.7431 4.36007 22.1626C4.77961 22.594 5.29134 22.9261 5.85507 23.1341C6.31361 23.3125 7.00143 23.5241 8.26952 23.582C9.64043 23.6446 10.0505 23.6576 13.5227 23.6576C16.9949 23.6576 17.405 23.6446 18.7759 23.582C20.044 23.5241 20.7318 23.3125 21.1903 23.1341C21.7966 22.8977 22.2303 22.6176 22.6853 22.1626C23.1167 21.7431 23.4488 21.2314 23.6568 20.6676C23.8353 20.2091 24.0468 19.5213 24.1047 18.2532C24.1673 16.8823 24.1803 16.471 24.1803 13C24.1803 9.529 24.1673 9.11773 24.1047 7.74682C24.0468 6.47873 23.8353 5.79091 23.6568 5.33236C23.4204 4.72609 23.1403 4.29236 22.6853 3.83736C22.2657 3.40608 21.7549 3.07416 21.1903 2.86591C20.7318 2.68745 20.044 2.47591 18.7759 2.418ZM11.8623 17.0075C12.7896 17.3936 13.8222 17.4457 14.7836 17.1549C15.7451 16.8642 16.5758 16.2487 17.1339 15.4136C17.692 14.5784 17.9428 13.5754 17.8435 12.5759C17.7442 11.5763 17.301 10.6422 16.5895 9.93318C16.136 9.47993 15.5876 9.13287 14.9838 8.91699C14.3801 8.70111 13.7359 8.62179 13.0978 8.68473C12.4597 8.74767 11.8435 8.9513 11.2936 9.28097C10.7436 9.61064 10.2736 10.0582 9.91734 10.5913C9.56109 11.1244 9.32747 11.7299 9.23331 12.3641C9.13916 12.9984 9.18679 13.6456 9.3728 14.2592C9.5588 14.8729 9.87855 15.4376 10.309 15.9129C10.7395 16.3881 11.27 16.7619 11.8623 17.0075ZM8.7978 8.27509C9.41828 7.65461 10.1549 7.16241 10.9656 6.82661C11.7763 6.49081 12.6452 6.31797 13.5227 6.31797C14.4002 6.31797 15.2691 6.4908 16.0798 6.82661C16.8905 7.16241 17.6271 7.65461 18.2476 8.27509C18.8681 8.89557 19.3603 9.6322 19.6961 10.4429C20.0319 11.2536 20.2047 12.1225 20.2047 13C20.2047 13.8775 20.0319 14.7464 19.6961 15.5571C19.3603 16.3678 18.8681 17.1044 18.2476 17.7249C16.9945 18.978 15.2949 19.682 13.5227 19.682C11.7505 19.682 10.0509 18.978 8.7978 17.7249C7.54467 16.4718 6.84067 14.7722 6.84067 13C6.84067 11.2278 7.54467 9.52821 8.7978 8.27509ZM21.6867 7.31309C21.8405 7.16805 21.9636 6.99362 22.0487 6.80015C22.1338 6.60668 22.1793 6.39809 22.1824 6.18674C22.1855 5.97538 22.1461 5.76556 22.0666 5.56968C21.9872 5.37381 21.8692 5.19588 21.7197 5.04641C21.5703 4.89694 21.3923 4.77899 21.1965 4.69952C21.0006 4.62006 20.7908 4.5807 20.5794 4.58378C20.3681 4.58686 20.1595 4.63232 19.966 4.71746C19.7725 4.8026 19.5981 4.92569 19.4531 5.07945C19.171 5.37849 19.0165 5.77569 19.0225 6.18674C19.0285 6.59778 19.1945 6.99031 19.4852 7.281C19.7758 7.57168 20.1684 7.73763 20.5794 7.74363C20.9905 7.74962 21.3877 7.59518 21.6867 7.31309Z" fill="white"/>
</svg>
