<svg width="21" height="20" viewBox="0 0 21 20" fill="none" xmlns="http://www.w3.org/2000/svg">
<path d="M10.0489 2.50156C7.00811 2.50702 5.4158 2.58167 4.39821 3.59925C3.30005 4.69737 3.30005 6.46479 3.30005 9.99957C3.30005 13.5344 3.30005 15.3018 4.39821 16.3999C5.49636 17.4981 7.26382 17.4981 10.7988 17.4981C14.3336 17.4981 16.1011 17.4981 17.1993 16.3999C18.2169 15.3824 18.2915 13.7902 18.297 10.7495" stroke="white" stroke-linecap="round" stroke-linejoin="round"/>
<path d="M17.8681 2.93107L13.2437 7.54272M17.8681 2.93107C17.4564 2.51897 14.6834 2.55739 14.0972 2.56572M17.8681 2.93107C18.2797 3.34316 18.2413 6.11921 18.233 6.70609" stroke="white" stroke-linecap="round" stroke-linejoin="round"/>
</svg>
