<svg width="26" height="22" viewBox="0 0 26 22" fill="none" xmlns="http://www.w3.org/2000/svg">
<path d="M11.7976 6.20059H14.1976" stroke="white" stroke-width="1.5" stroke-linecap="round"/>
<path d="M1 9.79999C1 5.8402 1 3.86029 2.23016 2.63015C3.4603 1.39999 5.4402 1.39999 9.4 1.39999H10.6C14.5598 1.39999 16.5396 1.39999 17.7699 2.63015C19 3.86029 19 5.8402 19 9.79999V12.2C19 16.1598 19 18.1396 17.7699 19.3699C16.5396 20.6 14.5598 20.6 10.6 20.6H9.4C5.4402 20.6 3.4603 20.6 2.23016 19.3699C1 18.1396 1 16.1598 1 12.2V9.79999Z" stroke="white" stroke-width="1.5"/>
<path d="M19 7.28702L19.1511 7.16235C21.69 5.06747 22.9595 4.02003 23.9798 4.52578C25 5.03153 25 6.70826 25 10.0617V11.9383C25 15.2918 25 16.9684 23.9798 17.4742C22.9595 17.9799 21.69 16.9326 19.1511 14.8376L19 14.7129" stroke="white" stroke-width="1.5" stroke-linecap="round"/>
</svg>
