<svg width="33" height="24" viewBox="0 0 33 24" fill="none" xmlns="http://www.w3.org/2000/svg">
<path d="M32.3122 5.29923C32.3122 2.48681 30.2435 0.224369 27.6873 0.224369C24.2249 0.0624981 20.6938 0 17.0851 0H15.9602C12.3603 0 8.82286 0.0624982 5.36045 0.224994C2.81052 0.224994 0.741829 2.49993 0.741829 5.31236C0.585583 7.53667 0.519335 9.76161 0.523085 11.9865C0.516835 14.2115 0.587667 16.4385 0.735579 18.6676C0.735579 21.48 2.80427 23.7612 5.3542 23.7612C8.9916 23.93 12.7228 24.005 16.5164 23.9987C20.3163 24.0112 24.037 23.9321 27.6786 23.7612C30.2348 23.7612 32.3035 21.48 32.3035 18.6676C32.4535 16.4364 32.5222 14.2115 32.516 11.9803C32.5301 9.75536 32.4622 7.52834 32.3122 5.29923ZM13.4602 18.1176V5.83672L22.5225 11.974L13.4602 18.1176Z" fill="white"/>
</svg>
